<?xml version="1.0" encoding="UTF-8"?>
<svg id="_レイヤー_1" data-name="レイヤー_1" xmlns="http://www.w3.org/2000/svg" viewBox="0 0 205.61 195.07">
  <path d="M77.16,143.26c0-21.31-17.27-38.58-38.58-38.58S0,121.95,0,143.26s17.27,38.58,38.58,38.58c1.52,0,3.01-.1,4.48-.27,19.2-2.22,34.1-18.52,34.1-38.32Z"/>
  <path d="M139.16,91.44c6.06-.78,23.4-3.72,35.36-16.46,4.58-4.88,7.14-9.88,7.52-10.63,3.11-6.24,4.67-13.26,4.67-21.07,0-28.85-18.9-43.28-56.69-43.28H60.59c-12.15,0-22,9.85-22,22v50.41c0,9.71,6.18,18.48,15.46,21.37,21.16,6.58,36.53,26.33,36.53,49.66,0,7.33-1.52,14.31-4.26,20.64-6.34,14.63,4,30.99,19.95,30.99h36.56c41.85,0,62.79-18.49,62.79-55.47,0-32.1-22.16-48.16-66.45-48.16ZM115.58,74.54c-1.02.12-2.05.18-3.1.18-14.74,0-26.7-11.95-26.7-26.7s11.95-26.7,26.7-26.7,26.7,11.95,26.7,26.7c0,13.69-10.31,24.97-23.6,26.51Z"/>
</svg>